<svg width="200" height="200" viewBox="0 0 200 200" fill="none" xmlns="http://www.w3.org/2000/svg">
<path d="M0 100C0 155.228 44.7715 200 100 200C155.228 200 200 155.228 200 100C200 44.7715 155.228 0 100 0C44.7715 0 0 44.7715 0 100Z" fill="#F6C065" fill-opacity="0.33"/>
<path d="M169.157 31H72.966C69.322 31.0016 65.8277 32.4499 63.251 35.0268C60.6744 37.6036 59.2263 41.098 59.225 44.742V72.225H169.157V96.272C169.156 97.1829 168.794 98.0563 168.15 98.7003C167.506 99.3444 166.633 99.7065 165.722 99.707H155.416V113.449H169.158C172.802 113.448 176.296 112 178.873 109.423C181.45 106.846 182.898 103.352 182.9 99.708V44.742C182.899 41.0976 181.45 37.6029 178.873 35.026C176.296 32.4492 172.801 31.0011 169.157 31V31ZM169.157 51.612H72.966V48.177C72.9665 47.2663 73.3285 46.3931 73.9723 45.749C74.6162 45.105 75.4893 44.7428 76.4 44.742H165.72C166.631 44.7425 167.504 45.1046 168.148 45.7487C168.792 46.3927 169.154 47.2661 169.155 48.177L169.157 51.612ZM127.933 85.966H31.742C28.0978 85.9673 24.6032 87.4156 22.0264 89.9924C19.4496 92.5692 18.0013 96.0638 18 99.708V154.674C18.0013 158.318 19.4496 161.813 22.0264 164.39C24.6032 166.966 28.0978 168.415 31.742 168.416H127.933C131.577 168.415 135.072 166.966 137.649 164.39C140.225 161.813 141.674 158.318 141.675 154.674V99.708C141.674 96.0638 140.225 92.5692 137.649 89.9924C135.072 87.4156 131.577 85.9673 127.933 85.966V85.966ZM52.354 154.674H38.612V147.8H52.354V154.674ZM72.966 154.674H59.225V147.8H72.966V154.674ZM75.166 131.474C72.565 133.091 69.5789 133.984 66.5169 134.059C63.4549 134.135 60.4285 133.39 57.7512 131.902C55.074 130.414 52.8432 128.237 51.2901 125.598C49.737 122.958 48.918 119.95 48.918 116.887C48.918 113.825 49.737 110.817 51.2901 108.177C52.8432 105.538 55.074 103.361 57.7512 101.873C60.4285 100.385 63.4549 99.6405 66.5169 99.7157C69.5789 99.7909 72.565 100.684 75.166 102.301C71.3886 106.217 69.2777 111.446 69.2777 116.887C69.2777 122.329 71.3886 127.558 75.166 131.474ZM100.45 154.674H86.708V147.8H100.449L100.45 154.674ZM93.579 134.062C90.1818 134.062 86.8608 133.055 84.0361 131.167C81.2114 129.28 79.0097 126.597 77.7096 123.459C76.4095 120.32 76.0693 116.866 76.732 113.534C77.3947 110.202 79.0305 107.142 81.4327 104.739C83.8348 102.337 86.8954 100.701 90.2273 100.038C93.5593 99.3753 97.013 99.7153 100.152 101.015C103.29 102.315 105.973 104.517 107.861 107.341C109.748 110.166 110.756 113.487 110.756 116.884C110.756 119.14 110.312 121.374 109.449 123.458C108.586 125.542 107.321 127.436 105.726 129.031C104.131 130.626 102.237 131.891 100.153 132.754C98.0686 133.617 95.8348 134.061 93.579 134.061V134.062ZM121.062 154.674H107.32V147.8H121.062V154.674Z" fill="#55B3B1"/>
</svg>
