<svg width="200" height="200" viewBox="0 0 200 200" fill="none" xmlns="http://www.w3.org/2000/svg">
<path d="M0 100C0 155.228 44.7715 200 100 200C155.228 200 200 155.228 200 100C200 44.7715 155.228 0 100 0C44.7715 0 0 44.7715 0 100Z" fill="#F6C065" fill-opacity="0.33"/>
<path fill-rule="evenodd" clip-rule="evenodd" d="M137.709 166.655H137.703C133.371 166.655 128.614 163.512 128.614 158.371V111.426C128.614 111.426 121.514 111.409 113.666 111.426C118.526 72.788 132.468 34.105 141.901 34.105C142.534 34.0822 143.164 34.1868 143.755 34.4125C144.346 34.6382 144.886 34.9805 145.342 35.4189C145.798 35.8574 146.162 36.3831 146.411 36.9648C146.66 37.5465 146.789 38.1723 146.791 38.805C146.852 46.505 146.809 130.552 146.797 158.371C146.797 162.944 142.725 166.655 137.708 166.655H137.709ZM67.9995 97.9C67.9995 94.084 65.3755 92.835 59.6565 88.66C55.4335 85.568 52.5245 80.746 53.0645 75.836C54.5915 61.824 58.2845 34 58.2845 34H61.9195V67.138H67.9965L69.3505 34H73.0285L74.0765 67.138H80.1545L81.6205 34H85.0255L86.2315 67.138H92.3085V34H95.6345C95.6345 34 99.7185 61.642 101.396 75.7C101.99 80.682 98.9185 85.6 94.5965 88.712C88.8465 92.86 86.2285 94.053 86.2285 97.93V158.268C86.2285 162.841 82.1505 166.552 77.1095 166.552C72.0685 166.552 67.9965 162.841 67.9965 158.268L67.9995 97.9Z" fill="#55B3B1"/>
</svg>
