<svg width="200" height="200" viewBox="0 0 200 200" fill="none" xmlns="http://www.w3.org/2000/svg">
<path d="M0 100C0 155.228 44.7715 200 100 200C155.228 200 200 155.228 200 100C200 44.7715 155.228 0 100 0C44.7715 0 0 44.7715 0 100Z" fill="#F6C065" fill-opacity="0.33"/>
<path fill-rule="evenodd" clip-rule="evenodd" d="M135.743 171.119H135.636C134.868 171.118 134.131 170.819 133.579 170.285C133.027 169.751 132.704 169.023 132.678 168.256C132.378 159.59 133.804 151.381 146.104 149.999C150.816 149.471 151.19 147.824 152.004 144.208C153.361 138.233 155.604 132.815 168.014 132.163C168.404 132.135 168.796 132.185 169.166 132.312C169.536 132.439 169.877 132.639 170.168 132.9C170.459 133.161 170.695 133.479 170.86 133.833C171.026 134.188 171.118 134.572 171.132 134.963C171.174 135.748 170.903 136.517 170.378 137.101C169.853 137.686 169.117 138.038 168.332 138.081C159.37 138.549 158.741 141.323 157.793 145.514C156.893 149.468 155.665 154.885 146.762 155.893C140.74 156.563 138.274 158.4 138.6 168.05C138.627 168.835 138.341 169.598 137.805 170.173C137.27 170.747 136.528 171.086 135.743 171.114V171.119ZM86.2962 60.1928C87.7249 61.4573 89.4367 62.36 91.2872 62.8248L112.424 68.1358C114.206 68.5849 116.086 68.4391 117.777 67.7208C124.191 64.9878 140.669 57.7388 147.777 54.9468C148.633 54.5316 149.613 54.4522 150.524 54.7243C151.435 54.9964 152.211 55.6002 152.699 56.4166C153.186 57.2329 153.35 58.2024 153.158 59.1337C152.966 60.065 152.431 60.8903 151.66 61.4468C143.421 67.7418 117.79 85.6668 117.79 85.6668L112.685 107.292C112.685 107.292 123.266 118.317 127.765 123.292C130.272 126.072 131.891 128.739 130.265 132.746C127.414 139.746 121.629 153.356 118.955 159.698C117.443 163.284 112.055 162.383 112.939 157.789C114.225 151.103 117.568 133.989 117.568 133.989L96.4782 124.389C96.4782 124.389 94.9782 159.675 94.5402 167.636C94.5455 168.092 94.4601 168.545 94.2891 168.968C94.118 169.39 93.8646 169.775 93.5437 170.099C93.2227 170.424 92.8406 170.681 92.4194 170.856C91.9982 171.032 91.5464 171.121 91.0902 171.121C89.6142 171.115 88.0792 170.096 87.4622 167.588C84.2972 154.678 74.7622 114.3 74.7622 114.3C73.5232 109.339 72.8122 105.231 74.4482 99.0998L79.8672 76.2798C79.8672 76.2798 63.7122 52.6608 57.8852 43.8208C55.5022 40.1988 59.9952 36.8268 62.6742 39.1978L86.2952 60.1978L86.2962 60.1928ZM43.7482 110.511L38.6922 113.54L54.7442 140.356C44.1442 142.17 37.4532 151.642 42.6042 160.249C45.7872 165.566 52.9952 166.805 58.1462 163.723C64.2752 160.054 68.6612 152.153 63.9462 144.257L43.7482 110.511ZM148.789 79.7298L154.147 89.6228L165.214 91.6608L157.461 99.8168L158.937 110.972L148.789 106.117L138.635 110.972L140.117 99.8168L132.358 91.6608L143.425 89.6218L148.789 79.7298ZM46.2552 62.3328L28.8672 79.7298L46.2582 97.1298L63.6582 79.7298L46.2582 62.3298L46.2552 62.3328ZM99.9292 30.3328C102.818 29.0048 106.036 28.5632 109.176 29.0638C112.315 29.5645 115.236 30.9849 117.569 33.1454C119.902 35.3059 121.541 38.1096 122.28 41.2019C123.02 44.2942 122.826 47.5363 121.722 50.5183C120.619 53.5003 118.657 56.0882 116.083 57.9549C113.509 59.8215 110.44 60.8831 107.262 61.0054C104.085 61.1277 100.943 60.3052 98.2336 58.6419C95.5239 56.9786 93.3683 54.5491 92.0392 51.6608C91.1568 49.7425 90.6609 47.6693 90.5798 45.5593C90.4988 43.4494 90.8342 41.3442 91.5668 39.3639C92.2995 37.3836 93.4151 35.5671 94.85 34.018C96.2848 32.469 98.0107 31.2177 99.9292 30.3358V30.3328Z" fill="#55B3B1"/>
</svg>
