<svg width="200" height="200" viewBox="0 0 200 200" fill="none" xmlns="http://www.w3.org/2000/svg">
<path d="M0 100C0 155.228 44.7715 200 100 200C155.228 200 200 155.228 200 100C200 44.7715 155.228 0 100 0C44.7715 0 0 44.7715 0 100Z" fill="#F6C065" fill-opacity="0.33"/>
<path fill-rule="evenodd" clip-rule="evenodd" d="M156.401 96.7795C160.868 100.763 164.433 105.655 166.858 111.127C169.283 116.599 170.511 122.526 170.461 128.512C170.461 151.078 153.413 169.402 132.42 169.402C127.761 169.405 123.148 168.492 118.842 166.717L156.401 96.7795ZM86.7407 149.681L84.6167 153.669C76.5407 168.711 58.6257 173.868 44.6387 165.188C30.6517 156.507 25.8457 137.25 33.9217 122.215L74.1467 46.7345C79.5947 36.5875 89.5147 30.9385 99.6927 31.0005C104.801 31.0429 109.797 32.502 114.125 35.2155C124.901 41.9005 130.231 54.8755 128.411 67.3505C128.005 70.1355 127.246 72.8575 126.152 75.4505C120.498 76.2242 115.033 78.0201 110.023 80.7505L114.701 71.9005C119.547 62.8795 116.667 51.3225 108.275 46.1135C99.8827 40.9045 89.1287 44.0005 84.2827 53.0255L64.5487 90.3625L87.8297 104.807C84.6332 111.827 82.889 119.421 82.7019 127.132C82.5147 134.844 83.8885 142.513 86.7407 149.681V149.681ZM108.688 160.464C104.146 156.479 100.517 151.562 98.0479 146.048C95.5786 140.534 94.3271 134.553 94.3787 128.512C94.3787 105.946 111.427 87.6205 132.42 87.6205C137.188 87.6167 141.909 88.5727 146.301 90.4315L108.688 160.464Z" fill="#55B3B1"/>
</svg>
