<svg width="200" height="200" viewBox="0 0 200 200" fill="none" xmlns="http://www.w3.org/2000/svg">
<path d="M0 100C0 155.228 44.7715 200 100 200C155.228 200 200 155.228 200 100C200 44.7715 155.228 0 100 0C44.7715 0 0 44.7715 0 100Z" fill="#F6C065" fill-opacity="0.33"/>
<path fill-rule="evenodd" clip-rule="evenodd" d="M97.5249 169.174H65.1009L65.2109 111.462L47.9969 161.793L30.5879 157.632L53.5599 65.2918L76.6419 55.3248C71.5179 49.8768 68.8229 41.8378 76.6419 36.6148C76.6419 36.6148 84.9049 30.7398 99.8329 30.6878C114.761 30.6358 122.806 36.4408 122.806 36.4408C130.458 41.3058 127.976 50.6838 122.806 55.3128L145.888 65.2918L169.079 157.632L151.768 161.845L134.456 111.462L134.346 169.174H102.146V45.1148C110.611 44.8258 117.146 43.0028 117.146 40.7978C117.146 38.3908 109.39 36.4408 99.8349 36.4408C90.2799 36.4408 82.5219 38.3918 82.5219 40.7988C82.5219 42.9988 89.0599 44.8268 97.5219 45.1158V169.174H97.5249ZM117.981 128.654L114.259 131.361L127.848 150.025L131.57 147.318L117.981 128.654ZM81.6809 128.654L85.4029 131.361L71.8179 150.025L68.0959 147.318L81.6879 128.654H81.6809Z" fill="#55B3B1"/>
</svg>
