<svg width="200" height="200" viewBox="0 0 200 200" fill="none" xmlns="http://www.w3.org/2000/svg">
<path d="M0 100C0 155.228 44.7715 200 100 200C155.228 200 200 155.228 200 100C200 44.7715 155.228 0 100 0C44.7715 0 0 44.7715 0 100Z" fill="#F6C065" fill-opacity="0.33"/>
<path d="M99.9999 29.082L28.1289 106.337H46.0969V170.716H153.904V106.337H171.872L99.9999 29.082ZM99.9999 144.964C90.3759 134.496 82.0289 126.682 82.0289 119.039C82.0289 107.959 96.5649 105.095 99.9969 115.994C103.438 105.082 117.968 107.972 117.968 119.039C117.968 126.682 109.629 134.502 99.9999 144.964ZM147.914 68.308L129.947 48.994V35.52H147.915L147.914 68.308Z" fill="#55B3B1"/>
</svg>
