<svg width="200" height="200" viewBox="0 0 200 200" fill="none" xmlns="http://www.w3.org/2000/svg">
<path d="M0 100C0 155.228 44.7715 200 100 200C155.228 200 200 155.228 200 100C200 44.7715 155.228 0 100 0C44.7715 0 0 44.7715 0 100Z" fill="#F6C065" fill-opacity="0.33"/>
<path d="M59.3173 174.984L39.2773 161.397V70.4808L59.3173 79.1808V174.984ZM72.6773 79.8738V176.713L159.518 164.202V67.8688L72.6773 79.8738ZM112.511 29.4508C98.5033 29.4508 86.0713 42.2878 86.0443 56.7638L86.0373 67.5388C86.0501 68.0102 86.1638 68.4735 86.3707 68.8973C86.5776 69.3211 86.873 69.6956 87.2369 69.9956C87.6007 70.2957 88.0247 70.5142 88.4802 70.6365C88.9357 70.7589 89.4121 70.7821 89.8773 70.7048C90.6516 70.6066 91.3647 70.2329 91.886 69.6521C92.4074 69.0713 92.7021 68.3221 92.7163 67.5418V56.7798C92.7363 45.8318 102.175 35.8558 112.509 35.8558C115.946 35.7962 119.268 37.0936 121.754 39.4668C123.195 40.9167 124.324 42.645 125.074 44.5461C125.824 46.4471 126.179 48.4811 126.116 50.5238V61.7098C126.13 62.1811 126.244 62.6441 126.451 63.0676C126.658 63.4911 126.953 63.8654 127.317 64.1651C127.681 64.4648 128.105 64.683 128.561 64.8051C129.016 64.9272 129.492 64.9503 129.957 64.8728C130.728 64.7751 131.438 64.4029 131.957 63.8244C132.476 63.2459 132.77 62.4998 132.783 61.7228L132.796 50.5228C132.812 38.3338 123.977 29.4508 112.511 29.4508ZM69.8253 67.8368C70.6024 67.74 71.3185 67.3663 71.8424 66.7842C72.3662 66.2021 72.6627 65.4507 72.6773 64.6678V50.3768C72.6913 39.4288 82.1373 29.4508 92.4713 29.4508L93.5533 29.5508C95.9893 27.7418 98.6589 26.2708 101.489 25.1778C98.6867 23.7852 95.6009 23.0574 92.4713 23.0508C78.4713 23.0508 66.0313 35.8878 66.0043 50.3638V64.6738C66.0168 65.1435 66.1296 65.6051 66.3352 66.0275C66.5408 66.45 66.8344 66.8236 67.1964 67.1232C67.5583 67.4228 67.9802 67.6415 68.4336 67.7646C68.8871 67.8877 69.3616 67.9123 69.8253 67.8368V67.8368Z" fill="#55B3B1"/>
</svg>
