<svg width="200" height="200" viewBox="0 0 200 200" fill="none" xmlns="http://www.w3.org/2000/svg">
<path d="M0 100C0 155.228 44.7715 200 100 200C155.228 200 200 155.228 200 100C200 44.7715 155.228 0 100 0C44.7715 0 0 44.7715 0 100Z" fill="#F6C065" fill-opacity="0.33"/>
<path d="M176.655 66.117C177.544 66.1278 178.392 66.4909 179.013 67.1266C179.634 67.7622 179.977 68.6184 179.967 69.507V72.971C179.967 78.347 173.834 79.671 169.267 79.671L162.07 66.117H176.655ZM167.11 89.885C171.336 97.4788 173.497 106.048 173.376 114.738C173.376 124.026 170.746 131.91 166.719 141.726V154.247C166.739 156.024 166.052 157.736 164.81 159.007C163.568 160.279 161.872 161.005 160.095 161.026H150.16C148.383 161.005 146.687 160.279 145.445 159.007C144.203 157.736 143.516 156.024 143.536 154.247V147.468H57.4302V154.247C57.4499 156.024 56.7633 157.736 55.5213 159.007C54.2792 160.279 52.5833 161.005 50.8062 161.026H40.8712C39.0941 161.005 37.3982 160.279 36.1561 159.007C34.9141 157.736 34.2275 156.024 34.2472 154.247V141.727C30.2202 131.91 27.5912 124.026 27.5912 114.738C27.4705 106.048 29.6311 97.4788 33.8572 89.885C39.3482 79.465 46.1172 66.476 53.2642 54.285C58.7482 44.912 61.6232 42.708 68.3522 41.474C78.5002 39.61 87.6802 39 100.484 39C113.288 39 122.468 39.61 132.615 41.474C139.345 42.708 142.215 44.911 147.704 54.28C154.85 66.477 161.62 79.466 167.111 89.886L167.11 89.885ZM60.7422 110.183C60.6967 108.228 60.0754 106.329 58.956 104.726C57.8366 103.122 56.2689 101.884 54.4493 101.168C52.6296 100.451 50.639 100.287 48.7266 100.696C46.8142 101.106 45.0651 102.07 43.6984 103.469C42.3316 104.868 41.4081 106.639 41.0433 108.56C40.6785 110.482 40.8888 112.468 41.6477 114.271C42.4067 116.073 43.6806 117.612 45.3099 118.693C46.9392 119.775 48.8515 120.352 50.8072 120.352C53.4727 120.32 56.0163 119.23 57.8792 117.324C59.7421 115.417 60.7718 112.849 60.7422 110.183V110.183ZM126.978 116.962C126.988 116.073 126.645 115.217 126.024 114.582C125.403 113.946 124.555 113.583 123.666 113.572H77.3002C76.4187 113.598 75.5821 113.967 74.9679 114.6C74.3536 115.232 74.0101 116.08 74.0101 116.962C74.0101 117.843 74.3536 118.691 74.9679 119.323C75.5821 119.956 76.4187 120.325 77.3002 120.351H123.665C124.554 120.34 125.402 119.978 126.023 119.342C126.644 118.707 126.988 117.851 126.978 116.962V116.962ZM146.458 79.493C146.458 79.493 141.558 67.114 135.658 58.193C135.006 57.1995 134.16 56.3476 133.171 55.6884C132.182 55.0291 131.07 54.576 129.902 54.356C120.197 52.6048 110.347 51.7897 100.486 51.922C90.6256 51.7897 80.775 52.6048 71.0702 54.356C69.9013 54.5736 68.7887 55.0257 67.7994 55.6852C66.8101 56.3447 65.9647 57.1978 65.3142 58.193C59.4142 67.108 54.5142 79.493 54.5142 79.493C65.3772 81.615 83.0552 82.862 100.489 82.862C117.923 82.862 135.6 81.615 146.458 79.493V79.493ZM160.1 110.183C160.055 108.228 159.433 106.329 158.314 104.726C157.195 103.122 155.627 101.884 153.807 101.168C151.988 100.451 149.997 100.287 148.085 100.696C146.172 101.106 144.423 102.07 143.056 103.469C141.69 104.868 140.766 106.639 140.401 108.56C140.037 110.482 140.247 112.468 141.006 114.271C141.765 116.073 143.039 117.612 144.668 118.693C146.297 119.775 148.209 120.352 150.165 120.352C152.831 120.32 155.374 119.23 157.237 117.324C159.1 115.417 160.13 112.849 160.1 110.183V110.183ZM38.9002 66.117H24.3122C23.4236 66.1278 22.5757 66.4909 21.9546 67.1266C21.3336 67.7622 20.9903 68.6184 21.0002 69.507V72.971C21.0002 78.347 27.1332 79.671 31.7002 79.671L38.9002 66.117Z" fill="#55B3B1"/>
</svg>
