<svg width="784" height="869" viewBox="0 0 784 869" fill="none" xmlns="http://www.w3.org/2000/svg">
<g clip-path="url(#clip0)">
<path d="M533.24 538.195C960.679 824.192 821.76 930.761 266.62 833.7C121.57 808.339 0 701.398 0 538.195C0 374.993 119.37 242.691 266.62 242.691C413.87 242.691 397.6 447.439 533.24 538.195Z" fill="#55B3B1"/>
<path opacity="0.1" d="M571.455 816.815C664.714 816.815 740.315 810.05 740.315 801.706C740.315 793.362 664.714 786.598 571.455 786.598C478.197 786.598 402.596 793.362 402.596 801.706C402.596 810.05 478.197 816.815 571.455 816.815Z" fill="black"/>
<path opacity="0.1" d="M238.428 318.815C287.857 318.815 327.928 312.05 327.928 303.706C327.928 295.362 287.857 288.598 238.428 288.598C188.998 288.598 148.928 295.362 148.928 303.706C148.928 312.05 188.998 318.815 238.428 318.815Z" fill="black"/>
<path opacity="0.1" d="M233.738 340.898C195.336 340.891 157.715 351.747 125.222 372.213C92.7284 392.679 66.6875 421.92 50.1074 456.558C69.1663 435.503 92.4306 418.68 118.397 407.177C144.363 395.675 172.454 389.747 200.854 389.779C313.253 389.779 404.375 480.901 404.375 593.299C404.42 623.707 397.622 653.736 384.485 681.159C418.509 643.753 437.331 594.984 437.258 544.419C437.258 432.02 346.136 340.898 233.738 340.898Z" fill="black"/>
<path opacity="0.3" d="M404.374 592.411C404.42 622.819 397.622 652.848 384.484 680.271C365.425 701.327 342.161 718.149 316.195 729.652C290.228 741.155 262.137 747.082 233.737 747.051C121.339 747.051 30.217 655.929 30.217 543.531C30.1711 513.122 36.969 483.094 50.1069 455.67C69.1658 434.615 92.4301 417.792 118.396 406.289C144.363 394.786 172.454 388.859 200.854 388.891C313.252 388.891 404.374 480.013 404.374 592.411Z" fill="#09015F"/>
<path d="M233.738 748.052C120.965 748.052 29.2175 656.305 29.2175 543.532C29.1356 512.97 35.9689 482.786 49.2058 455.239C65.8675 420.431 92.0363 391.047 124.689 370.48C157.343 349.914 195.148 339.004 233.738 339.012C346.511 339.012 438.258 430.759 438.258 543.532C438.26 570.391 432.971 596.986 422.693 621.801C412.416 646.615 397.351 669.162 378.359 688.153C359.368 707.145 336.821 722.21 312.006 732.487C287.192 742.765 260.596 748.054 233.738 748.052ZM233.738 341.012C156.249 341.012 84.5232 386.188 51.0095 456.105C37.9022 483.381 31.1359 513.27 31.2175 543.532C31.2175 655.202 122.068 746.052 233.738 746.052C260.334 746.054 286.67 740.817 311.241 730.64C335.813 720.463 358.139 705.546 376.945 686.739C395.751 667.933 410.669 645.607 420.846 621.035C431.023 596.464 436.26 570.128 436.258 543.532C436.258 431.862 345.408 341.012 233.738 341.012V341.012Z" fill="white"/>
<path d="M699.355 750.634C684.573 769.966 686.264 796.092 686.264 796.092C686.264 796.092 711.92 790.876 726.701 771.544C741.483 752.212 739.792 726.086 739.792 726.086C739.792 726.086 714.137 731.303 699.355 750.634Z" fill="#D0CDE1"/>
<path d="M709.042 754.976C706.174 779.142 686.756 796.703 686.756 796.703C686.756 796.703 671.989 775.084 674.858 750.919C677.726 726.753 697.144 709.191 697.144 709.191C697.144 709.191 711.911 730.81 709.042 754.976Z" fill="#AF0069"/>
<path d="M172.829 188.888C219.209 188.888 256.808 151.289 256.808 104.909C256.808 58.5284 219.209 20.9297 172.829 20.9297C126.448 20.9297 88.8496 58.5284 88.8496 104.909C88.8496 151.289 126.448 188.888 172.829 188.888Z" fill="#F6C065"/>
<path d="M354.902 190.533C354.942 274.417 305.088 303.727 243.578 303.756C242.149 303.757 240.727 303.742 239.312 303.711C236.462 303.651 233.641 303.522 230.849 303.325C175.332 299.421 132.182 268.653 132.145 190.641C132.105 109.908 235.238 7.97471 242.973 0.4377C242.979 0.4377 242.979 0.437699 242.986 0.430849C243.28 0.143599 243.431 0 243.431 0C243.431 0 354.861 106.655 354.902 190.533Z" fill="#AF0069"/>
<path d="M239.518 290.927L280.226 233.991L239.419 297.175L239.313 303.71C236.462 303.65 233.641 303.522 230.849 303.325L235.197 219.404L235.163 218.755L235.238 218.632L235.651 210.702L194.68 147.4L235.771 204.761L235.875 206.443L239.159 143.038L204.079 77.6208L239.584 131.895L242.973 0.43748L242.986 0L242.986 0.430629L242.463 104.098L277.327 62.9836L242.317 113.026L241.421 169.799L273.982 115.301L241.296 178.146L240.798 209.715L288.053 133.854L240.619 220.728L239.518 290.927Z" fill="#09015F"/>
<path d="M572.956 238.594C562.281 220.557 541.162 219.716 541.162 219.716C541.162 219.716 520.583 217.085 507.382 244.555C495.077 270.16 478.095 294.881 504.648 300.875L509.444 285.947L512.414 301.987C516.195 302.259 519.988 302.323 523.775 302.181C552.211 301.263 579.292 302.449 578.42 292.245C577.261 278.681 583.227 255.949 572.956 238.594Z" fill="#0A0106"/>
<path d="M525.861 407.844L528.607 435.302L592.219 428.438L593.592 407.844H525.861Z" fill="#A0616A"/>
<path d="M518.997 422.943L517.167 438.961C517.167 438.961 496.115 468.25 497.946 518.59C499.776 568.931 469.114 792.718 491.081 794.548C513.048 796.379 552.405 799.125 554.236 792.26C556.066 785.396 559.728 524.997 559.728 524.997C559.728 524.997 569.338 792.585 585.813 793.5C602.288 794.416 657.663 796.246 657.663 789.382C657.663 782.517 609.153 476.03 609.153 476.03L601.373 450.402L593.593 418.824C593.593 418.824 545.083 427.062 531.811 423.858C518.54 420.655 518.997 422.943 518.997 422.943Z" fill="#AF0069"/>
<path d="M540.965 296.18C557.141 296.18 570.254 283.067 570.254 266.891C570.254 250.715 557.141 237.602 540.965 237.602C524.789 237.602 511.676 250.715 511.676 266.891C511.676 283.067 524.789 296.18 540.965 296.18Z" fill="#A0616A"/>
<path d="M592.221 315.399L586.66 323.49L583.1 328.666L577.118 337.365L547.372 339.654C547.372 339.654 540.145 337.32 531.807 333.91C528.727 332.647 525.492 331.238 522.416 329.741C510.486 323.947 500.912 316.877 511.676 312.195C513.587 311.374 515.423 310.388 517.163 309.248C518.746 308.213 520.219 307.02 521.561 305.687C524.318 302.924 526.359 299.53 527.508 295.8C528.656 292.069 528.877 288.114 528.151 284.279L556.982 280.16C556.145 287.473 563.417 295.45 571.567 301.962C574.244 304.109 577.022 306.09 579.635 307.838C586.486 312.424 592.221 315.399 592.221 315.399Z" fill="#A0616A"/>
<path d="M552.863 324.096C552.863 324.096 524.718 319.291 518.311 309.223C518.311 309.223 490.624 312.655 492.912 327.299C495.2 341.944 518.082 422.031 518.082 422.031C518.082 422.031 575.287 411.048 596.339 419.286L609.153 317.231C609.153 317.231 604.576 307.163 595.881 309.909C587.186 312.655 583.754 310.138 583.754 310.138C583.754 310.138 573.914 324.096 552.863 324.096Z" fill="#D0CDE1"/>
<path d="M578.491 484.727C578.491 484.727 598.17 506.693 587.187 510.355C576.203 514.016 562.932 495.71 562.932 495.71L578.491 484.727Z" fill="#A0616A"/>
<path d="M584.899 486.559C584.899 486.559 568.881 497.542 574.831 504.864C580.78 512.187 601.374 498.457 601.374 495.711C601.374 492.966 584.899 486.559 584.899 486.559Z" fill="#A0616A"/>
<path d="M545.541 427.063L532.269 429.352L523.574 364.824C524.075 353.117 523.688 341.389 522.416 329.741C521.446 321.961 519.826 314.483 517.162 309.248C518.745 308.213 520.219 307.02 521.56 305.688C524.745 310.735 530.557 321.426 531.807 333.91C532.133 337.037 532.135 340.188 531.811 343.315C529.523 364.824 529.981 368.943 529.981 368.943L545.541 427.063Z" fill="#AF0069"/>
<path d="M514.878 313.11C514.878 313.11 493.369 307.16 491.538 319.974C489.708 332.788 491.996 365.739 497.03 378.095C502.064 390.451 519.454 430.724 519.454 430.724C519.454 430.724 551.032 470.996 552.405 480.607C553.778 490.217 560.642 500.285 560.642 500.285L582.609 486.098L539.591 413.333L520.827 362.993C520.827 362.993 528.607 317.228 514.878 313.11Z" fill="#D0CDE1"/>
<path d="M599.085 314.941L609.153 317.23C609.153 317.23 618.306 356.587 614.644 377.638C610.983 398.69 610.526 406.012 610.526 406.012L607.322 465.963C607.322 465.963 608.237 504.405 601.83 498.456C595.423 492.507 582.609 489.761 582.609 489.761C582.609 489.761 583.982 472.828 589.016 468.709C589.016 468.709 594.966 437.132 591.305 423.403C587.643 409.673 599.085 314.941 599.085 314.941Z" fill="#D0CDE1"/>
<path d="M602.745 359.331L591.076 426.833L583.982 423.859L596.339 359.331L583.099 328.664L571.566 301.961C574.244 304.107 577.021 306.089 579.635 307.837L586.659 323.488L602.745 359.331Z" fill="#AF0069"/>
<path d="M568.236 236.855L547.372 225.926L518.559 230.397L512.598 256.726L527.437 256.155L531.583 246.482V255.996L538.43 255.732L542.404 240.332L544.888 256.726L569.23 256.229L568.236 236.855Z" fill="#070205"/>
<path d="M527.019 801.708C534.872 801.708 541.238 799.32 541.238 796.375C541.238 793.43 534.872 791.043 527.019 791.043C519.165 791.043 512.799 793.43 512.799 796.375C512.799 799.32 519.165 801.708 527.019 801.708Z" fill="#060405"/>
<path d="M623.003 801.708C630.856 801.708 637.223 799.32 637.223 796.375C637.223 793.43 630.856 791.043 623.003 791.043C615.15 791.043 608.783 793.43 608.783 796.375C608.783 799.32 615.15 801.708 623.003 801.708Z" fill="black"/>
<path d="M218.317 558.375C203.532 561.648 183.854 563.642 169.517 561.559L187.516 575.266L137.127 607.765L139.837 611.967L190.226 579.468L195.291 601.522C199.308 587.602 209.241 570.499 218.317 558.375Z" fill="white"/>
<path d="M263.545 648.795C249 658.261 232.238 663.77 214.913 664.779C197.588 665.788 180.3 662.263 164.754 654.55L166.955 650.06C185.694 659.266 206.933 662.077 227.421 658.064C247.91 654.05 266.518 643.433 280.399 627.838C294.28 612.243 302.667 592.529 304.278 571.713C305.889 550.898 300.635 530.128 289.319 512.583C278.003 495.038 261.249 481.684 241.622 474.566C221.995 467.448 200.576 466.958 180.644 473.171C160.712 479.384 143.365 491.957 131.259 508.966C119.152 525.975 112.953 546.483 113.61 567.351L108.612 567.504C108.059 549.946 112.117 532.55 120.382 517.049C128.647 501.548 140.831 488.485 155.718 479.16C170.606 469.835 187.677 464.576 205.231 463.905C222.785 463.235 240.208 467.177 255.763 475.339C271.319 483.5 284.463 495.597 293.887 510.422C303.31 525.247 308.683 542.283 309.471 559.832C310.258 577.381 306.432 594.83 298.374 610.439C290.316 626.049 278.307 639.273 263.545 648.795Z" fill="white"/>
</g>
<defs>
<clipPath id="clip0">
<rect width="783.928" height="868.734" fill="white"/>
</clipPath>
</defs>
</svg>

