<svg width="418" height="500" viewBox="0 0 418 500" fill="none" xmlns="http://www.w3.org/2000/svg">
<path d="M208.999 187.5C320.354 187.5 417.333 145.521 417.333 93.75C417.333 41.9792 320.354 0 208.999 0C97.666 0 0.666016 41.9792 0.666016 93.75C0.666016 145.521 97.666 187.5 208.999 187.5ZM212.895 103.771C200.437 100.021 162.312 96.8542 162.312 75.6458C162.312 63.8125 176.229 53.2708 202.249 50.9167V41.6667H215.624V50.4583C225.374 50.6875 236.229 51.75 248.312 54.2083L243.437 68.4792C234.249 66.375 223.999 64.3333 213.937 64.3333L210.916 64.375C190.874 65.2083 189.229 76.3333 203.145 81.0208C225.895 88.0417 255.895 93.2083 255.895 111.833C255.895 126.708 237.833 134.688 215.604 136.667V145.833H202.229V137.167C188.499 137.042 174.041 134.813 162.124 130.833L168.27 116.542C178.437 119.146 191.229 121.813 202.749 121.813C205.77 121.813 208.666 121.625 211.437 121.229C226.791 119.021 229.854 108.688 212.895 103.771ZM208.999 437.5C287.812 437.5 369.583 417.313 417.333 379.104V406.25C417.333 458.021 320.354 500 208.999 500C97.666 500 0.666016 458.021 0.666016 406.25V379.083C48.416 417.312 130.187 437.5 208.999 437.5ZM208.999 229.167C287.812 229.167 369.583 208.979 417.333 170.771V197.917C417.333 249.688 320.354 291.667 208.999 291.667C97.666 291.667 0.666016 249.688 0.666016 197.917V170.771C48.416 208.979 130.187 229.167 208.999 229.167ZM208.999 333.333C287.812 333.333 369.583 313.146 417.333 274.938V302.083C417.333 353.854 320.354 395.833 208.999 395.833C97.666 395.833 0.666016 353.854 0.666016 302.083V274.917C48.416 313.146 130.187 333.333 208.999 333.333Z" fill="url(#paint0_linear)"/>
<defs>
<linearGradient id="paint0_linear" x1="208.999" y1="0" x2="483" y2="500" gradientUnits="userSpaceOnUse">
<stop stop-color="#AF0069"/>
<stop offset="0.651042" stop-color="#55B3B1"/>
<stop offset="1" stop-color="#F6C065"/>
</linearGradient>
</defs>
</svg>
