<svg width="793" height="552" viewBox="0 0 793 552" fill="none" xmlns="http://www.w3.org/2000/svg">
<g clip-path="url(#clip0)">
<path d="M158 551.73C245.261 551.73 316 546.358 316 539.73C316 533.103 245.261 527.73 158 527.73C70.739 527.73 0 533.103 0 539.73C0 546.358 70.739 551.73 158 551.73Z" fill="#E6E6E6"/>
<path d="M120.771 122.418C148.268 110.723 182.516 118.133 215.962 123.276C216.274 117.048 220.046 109.468 216.094 105.123C211.293 99.844 211.735 94.2975 214.624 88.7191C222.012 74.4541 211.427 59.2753 200.74 46.6544C198.331 43.8161 195.287 41.586 191.854 40.1453C188.422 38.7045 184.698 38.0938 180.985 38.3626L161.187 39.7767C156.37 40.1208 151.772 41.9279 148.01 44.9564C144.247 47.9848 141.5 52.0901 140.134 56.7228C135.407 63.152 132.877 69.5634 134.47 75.9414C127.389 80.7802 126.2 86.6211 129.381 93.2058C132.079 97.3517 132.051 101.387 129.259 105.311C125.592 110.314 122.783 115.892 120.948 121.817L120.771 122.418Z" fill="#2F2E41"/>
<path d="M774.209 476.964H213.791C208.807 476.964 204.028 474.984 200.504 471.46C196.98 467.936 195 463.156 195 458.172C398.151 434.562 597.485 434.562 793 458.172C793 463.156 791.02 467.936 787.496 471.46C783.972 474.984 779.193 476.964 774.209 476.964Z" fill="#2F2E41"/>
<path d="M793 459.277L195 458.172L264.306 341.556L264.638 341.004V83.9964C264.637 80.8769 265.252 77.7878 266.445 74.9057C267.639 72.0236 269.389 69.4049 271.595 67.1991C273.8 64.9932 276.419 63.2435 279.301 62.0498C282.183 60.8562 285.272 60.2419 288.392 60.2422H696.292C699.411 60.2419 702.501 60.8562 705.383 62.0498C708.265 63.2435 710.883 64.9932 713.089 67.1991C715.295 69.4049 717.045 72.0236 718.239 74.9057C719.432 77.7878 720.046 80.8769 720.046 83.9964V342.772L793 459.277Z" fill="#3F3D56"/>
<path d="M287.851 76.8242C285.799 76.8265 283.833 77.6425 282.382 79.093C280.932 80.5436 280.116 82.5103 280.113 84.5617V318.898C280.116 320.95 280.932 322.916 282.382 324.367C283.833 325.817 285.799 326.633 287.851 326.636H700.15C702.202 326.633 704.168 325.817 705.619 324.367C707.069 322.916 707.885 320.95 707.888 318.898V84.5617C707.885 82.5104 707.069 80.5437 705.619 79.0931C704.168 77.6426 702.202 76.8266 700.15 76.8242H287.851Z" fill="white"/>
<path d="M289.578 357.586C288.944 357.587 288.324 357.769 287.79 358.111C287.256 358.453 286.831 358.941 286.565 359.516L265.21 405.941C264.977 406.446 264.876 407.002 264.914 407.557C264.953 408.112 265.13 408.648 265.43 409.116C265.73 409.584 266.143 409.97 266.631 410.236C267.119 410.503 267.666 410.643 268.222 410.643H717.314C717.879 410.643 718.435 410.499 718.929 410.223C719.423 409.948 719.838 409.551 720.135 409.07C720.432 408.59 720.601 408.041 720.627 407.476C720.652 406.911 720.532 406.35 720.279 405.844L697.067 359.419C696.793 358.867 696.37 358.403 695.846 358.079C695.322 357.755 694.718 357.584 694.102 357.586H289.578Z" fill="#2F2E41"/>
<path d="M492.341 72.9521C495.088 72.9521 497.315 70.7252 497.315 67.978C497.315 65.2309 495.088 63.0039 492.341 63.0039C489.594 63.0039 487.367 65.2309 487.367 67.978C487.367 70.7252 489.594 72.9521 492.341 72.9521Z" fill="white"/>
<path d="M448.2 419.484C447.471 419.485 446.763 419.726 446.184 420.169C445.605 420.613 445.189 421.234 444.998 421.938L439.642 441.834C439.509 442.326 439.492 442.841 439.59 443.341C439.689 443.84 439.902 444.31 440.211 444.714C440.521 445.118 440.919 445.445 441.376 445.671C441.832 445.896 442.334 446.013 442.843 446.013H544.717C545.246 446.013 545.767 445.887 546.237 445.644C546.707 445.402 547.112 445.051 547.418 444.62C547.725 444.19 547.924 443.692 547.999 443.169C548.074 442.645 548.023 442.112 547.85 441.612L540.963 421.716C540.737 421.064 540.314 420.499 539.752 420.099C539.191 419.7 538.519 419.485 537.829 419.484H448.2Z" fill="#2F2E41"/>
<path d="M720.047 337.137V341.558H264.307L264.65 341.006V337.137H720.047Z" fill="#2F2E41"/>
<path d="M707.334 154.75C750.067 154.75 784.709 120.108 784.709 77.3752C784.709 34.6421 750.067 0 707.334 0C664.601 0 629.959 34.6421 629.959 77.3752C629.959 120.108 664.601 154.75 707.334 154.75Z" fill="#AF0069"/>
<path d="M739.39 111.089H675.279C674.107 111.088 672.983 110.622 672.154 109.793C671.325 108.964 670.859 107.84 670.857 106.668V67.98C670.859 66.8078 671.325 65.6839 672.154 64.855C672.983 64.0261 674.107 63.5598 675.279 63.5586H739.39C740.562 63.5598 741.686 64.0261 742.515 64.855C743.344 65.6839 743.81 66.8078 743.811 67.98V106.668C743.81 107.84 743.344 108.964 742.515 109.793C741.686 110.622 740.562 111.088 739.39 111.089ZM675.279 67.9801V106.668H739.393L739.39 67.98L675.279 67.9801Z" fill="white"/>
<path d="M727.231 67.9805H687.438V50.2947C687.438 37.4849 695.805 28.1875 707.334 28.1875C718.863 28.1875 727.23 37.4849 727.23 50.2947L727.231 67.9805ZM691.859 63.5591H722.809V50.2947C722.809 39.8817 716.446 32.609 707.334 32.609C698.222 32.609 691.859 39.8818 691.859 50.2947L691.859 63.5591Z" fill="white"/>
<path d="M707.336 90.6398C709.777 90.6398 711.757 88.6602 711.757 86.2183C711.757 83.7764 709.777 81.7969 707.336 81.7969C704.894 81.7969 702.914 83.7764 702.914 86.2183C702.914 88.6602 704.894 90.6398 707.336 90.6398Z" fill="white"/>
<path d="M653.32 247.151H334.68C333.116 247.149 331.616 246.527 330.51 245.421C329.403 244.315 328.781 242.815 328.779 241.25V162.209C328.781 160.645 329.403 159.145 330.51 158.039C331.616 156.933 333.116 156.31 334.68 156.309H653.32C654.884 156.31 656.384 156.933 657.49 158.039C658.596 159.145 659.219 160.645 659.221 162.209V241.25C659.219 242.815 658.596 244.315 657.49 245.421C656.384 246.527 654.884 247.149 653.32 247.151ZM334.68 158.669C333.741 158.67 332.841 159.043 332.178 159.707C331.514 160.371 331.141 161.271 331.14 162.209V241.25C331.141 242.189 331.514 243.089 332.178 243.753C332.841 244.416 333.741 244.79 334.68 244.791H653.32C654.259 244.79 655.158 244.416 655.822 243.753C656.486 243.089 656.859 242.189 656.86 241.25V162.209C656.859 161.271 656.486 160.371 655.822 159.707C655.158 159.043 654.259 158.67 653.32 158.669L334.68 158.669Z" fill="#E6E6E6"/>
<path d="M384.191 222.733C397.466 222.733 408.227 211.972 408.227 198.697C408.227 185.422 397.466 174.66 384.191 174.66C370.916 174.66 360.154 185.422 360.154 198.697C360.154 211.972 370.916 222.733 384.191 222.733Z" fill="#E6E6E6"/>
<path d="M439.704 182.672C439.177 182.671 438.656 182.774 438.169 182.975C437.682 183.176 437.24 183.471 436.867 183.843C436.494 184.215 436.199 184.657 435.997 185.143C435.795 185.63 435.691 186.151 435.691 186.678C435.691 187.205 435.795 187.726 435.997 188.212C436.199 188.699 436.494 189.141 436.867 189.513C437.24 189.885 437.682 190.18 438.169 190.381C438.656 190.582 439.177 190.685 439.704 190.684H628.562C629.624 190.684 630.643 190.262 631.394 189.511C632.146 188.759 632.568 187.74 632.568 186.678C632.568 185.615 632.146 184.597 631.394 183.845C630.643 183.094 629.624 182.672 628.562 182.672H439.704Z" fill="#E6E6E6"/>
<path d="M439.703 206.707C438.641 206.707 437.622 207.129 436.871 207.88C436.119 208.632 435.697 209.651 435.697 210.713C435.697 211.776 436.119 212.795 436.871 213.546C437.622 214.297 438.641 214.719 439.703 214.719H520.969C522.032 214.719 523.051 214.297 523.802 213.546C524.553 212.795 524.975 211.776 524.975 210.713C524.975 209.651 524.553 208.632 523.802 207.88C523.051 207.129 522.032 206.707 520.969 206.707H439.703Z" fill="#E6E6E6"/>
<path d="M263.522 208.326L204.619 239.642L203.873 213.546C223.099 210.336 241.39 204.748 258.302 195.651L264.463 180.431C265.134 178.772 266.225 177.317 267.629 176.208C269.033 175.098 270.701 174.373 272.469 174.103C274.238 173.833 276.046 174.027 277.717 174.667C279.388 175.307 280.864 176.37 281.999 177.753C283.661 179.776 284.492 182.354 284.323 184.967C284.154 187.579 282.999 190.03 281.091 191.822L263.522 208.326Z" fill="#FFB8B8"/>
<path d="M119.599 389.133C119.169 387.557 119.078 385.908 119.331 384.294C119.585 382.68 120.177 381.138 121.068 379.77L134.008 359.912C137.068 355.215 141.764 351.823 147.185 350.393C152.605 348.963 158.363 349.597 163.343 352.173C157.905 361.429 158.663 369.55 165.221 376.606C155.04 381.576 145.631 387.991 137.285 395.651C135.761 396.69 134.011 397.35 132.181 397.575C130.351 397.801 128.493 397.586 126.763 396.948C125.032 396.31 123.48 395.268 122.233 393.909C120.987 392.55 120.084 390.912 119.599 389.133Z" fill="#2F2E41"/>
<path d="M266.206 363.17C264.248 366.433 261.484 369.138 258.179 371.026C254.875 372.913 251.14 373.92 247.335 373.949L161.374 374.6L157.646 352.977L195.672 341.793L163.611 317.188L198.655 276.18L262.305 335.504C266.025 338.971 268.442 343.611 269.152 348.646C269.862 353.682 268.822 358.809 266.206 363.17Z" fill="#09015F"/>
<path d="M147.952 511.047H127.821C109.746 387.149 91.3471 262.905 145.716 216.531L209.838 226.97L201.636 281.399L165.847 322.408L147.952 511.047Z" fill="#09015F"/>
<path d="M165.649 539.113C164.073 539.543 162.424 539.634 160.81 539.381C159.196 539.128 157.654 538.536 156.285 537.644L134.427 534.706C129.73 531.646 126.337 526.95 124.907 521.53C123.476 516.109 124.11 510.351 126.686 505.372C135.943 510.809 144.063 510.051 151.119 503.492C156.105 513.56 164.32 512.945 172.166 521.427C173.205 522.951 173.865 524.701 174.09 526.531C174.316 528.361 174.101 530.219 173.463 531.949C172.826 533.679 171.784 535.232 170.424 536.478C169.065 537.725 167.428 538.628 165.649 539.113Z" fill="#2F2E41"/>
<path d="M195.671 133.767L158.391 124.82C164.582 112.146 165.092 98.0438 162.119 83.0659L187.469 82.3203C188.264 100.946 190.667 118.347 195.671 133.767Z" fill="#FFB8B8"/>
<path d="M205.918 249.42C178.779 267.913 159.604 250.053 144.971 222.496C147.004 205.635 143.712 185.456 137.614 163.53C134.902 153.859 135.914 143.523 140.451 134.562C144.988 125.602 152.72 118.668 162.119 115.129L194.181 128.55C221.404 150.74 226.763 174.777 216.549 200.128L205.918 249.42Z" fill="#AF0069"/>
<path d="M127.82 152.406L97.996 168.064L150.934 199.379L158.3 217.549C158.792 218.761 159.031 220.062 159.004 221.37C158.977 222.678 158.683 223.967 158.142 225.158C157.6 226.35 156.821 227.418 155.853 228.298C154.885 229.179 153.748 229.853 152.511 230.28C151.105 230.764 149.605 230.917 148.13 230.726C146.655 230.535 145.244 230.004 144.008 229.177C142.772 228.349 141.744 227.247 141.005 225.956C140.267 224.665 139.837 223.22 139.749 221.735L139.004 209.072L71.7206 186.868C69.4537 186.12 67.3867 184.866 65.6762 183.201C63.9657 181.536 62.6566 179.503 61.848 177.257C60.6693 173.983 60.6094 170.411 61.6774 167.099C62.7454 163.787 64.8812 160.923 67.7506 158.954L121.855 121.836L127.82 152.406Z" fill="#FFB8B8"/>
<path d="M157.646 155.389C145.207 149.938 133.896 155.859 119.62 160.608L117.383 121.091C131.559 113.535 145.075 111.498 157.646 117.363L157.646 155.389Z" fill="#AF0069"/>
<path d="M172.525 101.893C185.67 101.893 196.327 91.2367 196.327 78.0912C196.327 64.9456 185.67 54.2891 172.525 54.2891C159.379 54.2891 148.723 64.9456 148.723 78.0912C148.723 91.2367 159.379 101.893 172.525 101.893Z" fill="#FFB8B8"/>
<path d="M201 75.0882C177.434 77.3964 159.477 73.5422 148 62.5682V53.7305H199L201 75.0882Z" fill="#2F2E41"/>
</g>
<defs>
<clipPath id="clip0">
<rect width="793" height="551.732" fill="white"/>
</clipPath>
</defs>
</svg>
